#!OML:ASF F:\VICON\USERDATA\INSTALL\rory3\rory3.ASF
:FULLY-SPECIFIED
:DEGREES
3220
root 2.68882 17.6301 -4.48358 9.56517 -31.2279 0.148512
lowerback 10.4842 -0.785996 -2.39645
upperback 0.0355742 -1.24762 1.61333
thorax -5.7629 -0.525465 3.2354
lowerneck -25.2295 -2.12554 -9.99012
upperneck 20.6198 -0.290433 4.22156
head 10.8428 -0.402547 3.12977
rclavicle -8.89561e-015 -2.5842e-015
rhumerus -27.854 13.4744 -85.855
rradius 129.764
rwrist -1.77814
rhand -19.618 24.1673
rfingers 7.12502
rthumb 6.70862 -5.70638
lclavicle -8.89561e-015 -2.5842e-015
lhumerus -7.05222 -16.5555 87.4928
lradius 123.343
lwrist -2.68337
lhand -18.2218 10.6884
lfingers 7.12502
lthumb 8.05628 40.5149
rfemur -22.8174 -11.877 20.7796
rtibia 58.2624
rfoot -5.0641 11.3743
rtoes -5.09995
lfemur -24.2204 3.65963 -13.1308
ltibia 45.3893
lfoot -11.2625 -10.107
ltoes -29.4222
3221
root 2.62125 17.7314 -4.49867 9.23866 -31.0665 0.463653
lowerback 10.56 -0.746132 -2.65875
upperback 0.135578 -1.23842 1.43346
thorax -5.69929 -0.518617 3.19317
lowerneck -25.2895 -2.11078 -9.94578
upperneck 20.9235 -0.229725 4.02367
head 10.9626 -0.405836 3.06559
rclavicle -5.13361e-014 1.27222e-014
rhumerus -28.5722 13.0505 -85.6511
rradius 129.948
rwrist -1.62734
rhand -19.4729 23.8375
rfingers 7.12502
rthumb 6.84863 -6.03171
lclavicle -5.13361e-014 1.27222e-014
lhumerus -6.67983 -16.931 87.0586
lradius 122.854
lwrist -2.65722
lhand -18.1871 10.8332
lfingers 7.12502
lthumb 8.08972 40.6584
rfemur -23.1422 -11.8531 20.0344
rtibia 58.231
rfoot -4.99509 12.0668
rtoes -5.97265
lfemur -23.6228 3.48054 -12.8519
ltibia 44.2821
lfoot -9.25447 -11.2836
ltoes -28.6713
3222
root 2.553 17.8224 -4.51872 9.02772 -30.8681 0.677577
lowerback 10.6647 -0.737289 -2.88834
upperback 0.172526 -1.26351 1.32403
thorax -5.71507 -0.526223 3.2137
lowerneck -24.9426 -2.06644 -10.298
upperneck 20.8549 -0.142008 4.27511
head 10.8678 -0.362441 3.22681
rclavicle 1.78409e-014 5.76476e-015
rhumerus -29.3415 12.7529 -85.3733
rradius 130.121
rwrist -1.35483
rhand -19.795 23.6794
rfingers 7.12502
rthumb 6.53772 -6.19968
lclavicle 1.78409e-014 5.76476e-015
lhumerus -6.47865 -17.2246 86.6443
lradius 122.53
lwrist -2.51316
lhand -18.0515 10.8289
lfingers 7.12502
lthumb 8.22061 40.649
rfemur -23.4589 -11.6445 19.3639
rtibia 58.0469
rfoot -5.32543 12.0092
rtoes -4.87783
lfemur -23.1035 2.97894 -12.4082
ltibia 43.1605
lfoot -7.55178 -12.1263
ltoes -30.0979
3223
root 2.48745 17.9081 -4.53648 8.91363 -30.6748 0.809404
lowerback 10.7754 -0.779631 -3.05457
upperback 0.133343 -1.34574 1.28498
thorax -5.80982 -0.559796 3.2828
lowerneck -24.4268 -1.96989 -10.8692
upperneck 20.6904 0.0211584 4.73904
head 10.6991 -0.27347 3.50998
rclavicle -6.63941e-014 9.93923e-015
rhumerus -30.2393 12.6836 -85.031
rradius 130.36
rwrist -1.04779
rhand -20.3967 23.7193
rfingers 7.12502
rthumb 5.95683 -6.17698
lclavicle -6.63941e-014 9.93923e-015
lhumerus -6.50141 -17.3122 86.3605
lradius 122.359
lwrist -2.2174
lhand -18.0323 10.8775
lfingers 7.12502
lthumb 8.23919 40.6969
rfemur -23.8454 -11.2718 18.7148
rtibia 57.7129
rfoot -6.18649 10.9869
rtoes -5.49117
lfemur -22.6157 2.09002 -11.8589
ltibia 42.0492
lfoot -6.13104 -12.6617
ltoes -30.7844
3224
root 2.42267 17.9903 -4.55352 8.90385 -30.5127 0.747058
lowerback 10.8423 -0.78853 -3.00501
upperback 0.131828 -1.35232 1.30087
thorax -5.84924 -0.563313 3.27438
lowerneck -24.0716 -1.89304 -11.3493
upperneck 20.6072 0.184829 5.02538
head 10.589 -0.201203 3.71428
rclavicle 3.49861e-014 -1.86858e-014
rhumerus -31.0122 12.5545 -84.544
rradius 130.705
rwrist -1.06059
rhand -20.6935 23.6217
rfingers 7.12502
rthumb 5.6703 -6.28238
lclavicle 3.49861e-014 -1.86858e-014
lhumerus -6.49083 -17.3915 86.1567
lradius 122.246
lwrist -2.10816
lhand -17.9756 10.9987
lfingers 7.12502
lthumb 8.29386 40.8159
rfemur -24.2353 -10.7354 18.2121
rtibia 57.1791
rfoot -7.60392 9.00774
rtoes -7.43445
lfemur -22.0781 1.02655 -11.1224
ltibia 41.0019
lfoot -4.97215 -12.8284
ltoes -30.0735
3225
root 2.36013 18.0622 -4.57268 8.92672 -30.4547 0.652372
lowerback 10.8805 -0.7269 -2.87171
upperback 0.197576 -1.2562 1.27305
thorax -5.81197 -0.522065 3.15461
lowerneck -24.0657 -1.92175 -11.5181
upperneck 20.6529 0.210773 5.00458
head 10.6033 -0.207363 3.73918
rclavicle 8.75149e-014 -1.98785e-015
rhumerus -31.5342 12.1676 -83.9502
rradius 131.058
rwrist -1.35086
rhand -20.7633 23.3941
rfingers 7.12502
rthumb 5.60284 -6.51184
lclavicle 8.75149e-014 -1.98785e-015
lhumerus -6.25535 -17.587 85.8178
lradius 122.162
lwrist -1.98912
lhand -18.0265 11.3974
lfingers 7.12502
lthumb 8.24472 41.2165
rfemur -24.6051 -9.98742 17.6878
rtibia 56.4369
rfoot -8.88576 6.74527
rtoes -6.36269
lfemur -21.5041 -0.0820286 -10.4135
ltibia 40.0793
lfoot -4.4762 -12.0997
ltoes -29.5431
3226
root 2.30208 18.1272 -4.59101 8.97697 -30.455 0.53236
lowerback 10.984 -0.686003 -2.66076
upperback 0.239372 -1.18126 1.21607
thorax -5.83682 -0.492059 2.96544
lowerneck -24.2629 -1.99693 -11.6308
upperneck 20.8263 0.158978 5.05903
head 10.7081 -0.237584 3.7762
rclavicle 1.46604e-014 1.70955e-014
rhumerus -31.8833 11.7886 -83.3891
rradius 131.273
rwrist -1.67147
rhand -20.7472 23.1872
rfingers 7.12502
rthumb 5.61842 -6.71828
lclavicle 1.46604e-014 1.70955e-014
lhumerus -5.99458 -17.6375 85.3278
lradius 122.149
lwrist -1.60751
lhand -17.8998 11.5194
lfingers 7.12502
lthumb 8.36706 41.3337
rfemur -24.9307 -9.14037 17.1094
rtibia 55.472
rfoot -9.99274 4.96113
rtoes -4.21595
lfemur -20.9391 -1.21453 -9.75232
ltibia 39.3804
lfoot -4.78607 -9.97862
ltoes -29.7938
3227
root 2.24915 18.1788 -4.60333 9.10358 -30.4927 0.411137
lowerback 10.9728 -0.661682 -2.39643
upperback 0.260083 -1.11784 1.17414
thorax -5.81867 -0.469485 2.76125
lowerneck -24.4254 -2.01829 -11.706
upperneck 20.9473 0.168619 5.09663
head 10.7816 -0.237405 3.80879
rclavicle -6.40087e-014 1.82882e-014
rhumerus -32.0522 11.4185 -82.7963
rradius 131.257
rwrist -1.92924
rhand -20.5863 23.2481
rfingers 7.12502
rthumb 5.77375 -6.65325
lclavicle -6.40087e-014 1.82882e-014
lhumerus -5.81388 -17.546 84.9639
lradius 122.183
lwrist -1.4328
lhand -17.7553 11.1032
lfingers 7.12502
lthumb 8.50645 40.9118
rfemur -25.2897 -8.25609 16.4522
rtibia 54.3036
rfoot -11.2899 3.1345
rtoes -6.39691
lfemur -20.4476 -2.29996 -9.13929
ltibia 38.9268
lfoot -5.48382 -6.73853
ltoes -28.4711
3228
root 2.2013 18.2129 -4.61302 9.25956 -30.5906 0.228827
lowerback 10.9142 -0.619699 -2.04567
upperback 0.322715 -1.01619 1.18899
thorax -5.73167 -0.431327 2.56043
lowerneck -24.5209 -2.00939 -11.8362
upperneck 20.9601 0.250982 5.0646
head 10.7966 -0.214581 3.83221
rclavicle 2.34069e-014 1.86858e-014
rhumerus -32.0151 11.0497 -82.055
rradius 131.171
rwrist -2.12597
rhand -20.4429 23.2826
rfingers 7.12502
rthumb 5.91219 -6.61489
lclavicle 2.34069e-014 1.86858e-014
lhumerus -5.64157 -17.4903 84.7332
lradius 122.342
lwrist -1.45438
lhand -17.8555 11.1972
lfingers 7.12502
lthumb 8.40977 41.0098
rfemur -25.5966 -7.30244 15.7733
rtibia 52.925
rfoot -12.6224 0.954837
rtoes -8.27986
lfemur -20.0021 -2.95523 -8.53437
ltibia 38.7064
lfoot -6.23269 -3.43088
ltoes -30.9869
